REM DIRINDEX 1\2,1\3,1\4,1\5
REM DIRNAME folder01,folder02,folder03,folder04,folder05
TITLE ""
FILE "1Q_j_2367-2380.mp3" MP3
  TRACK 01 AUDIO
    TITLE "3:cjc004_0800"
    INDEX 01 00:00:00
  TRACK 02 AUDIO
    TITLE "0:"
    INDEX 01 00:01:01
  TRACK 03 AUDIO
    TITLE "4:cjc004_0801"
    INDEX 01 00:01:34
  TRACK 04 AUDIO
    TITLE "0:"
    INDEX 01 00:02:53
  TRACK 05 AUDIO
    TITLE "5:cjc004_0802"
    INDEX 01 00:03:10
  TRACK 06 AUDIO
    TITLE "0:"
    INDEX 01 00:07:37
  TRACK 07 AUDIO
    TITLE "3:cjc004_0803"
    INDEX 01 00:08:17
  TRACK 08 AUDIO
    TITLE "0:"
    INDEX 01 00:09:34
  TRACK 09 AUDIO
    TITLE "4:cjc004_0804"
    INDEX 01 00:09:65
  TRACK 10 AUDIO
    TITLE "0:"
    INDEX 01 00:11:07
  TRACK 11 AUDIO
    TITLE "5:cjc004_0805"
    INDEX 01 00:11:33
  TRACK 12 AUDIO
    TITLE "0:"
    INDEX 01 00:15:52
  TRACK 13 AUDIO
    TITLE "3:cjc004_0806"
    INDEX 01 00:16:34
  TRACK 14 AUDIO
    TITLE "0:"
    INDEX 01 00:17:49
  TRACK 15 AUDIO
    TITLE "4:cjc004_0807"
    INDEX 01 00:18:07
  TRACK 16 AUDIO
    TITLE "0:"
    INDEX 01 00:19:34
  TRACK 17 AUDIO
    TITLE "5:cjc004_0808"
    INDEX 01 00:19:58
  TRACK 18 AUDIO
    TITLE "0:"
    INDEX 01 00:26:40
  TRACK 19 AUDIO
    TITLE "3:cjc004_0809"
    INDEX 01 00:27:20
  TRACK 20 AUDIO
    TITLE "0:"
    INDEX 01 00:28:43
  TRACK 21 AUDIO
    TITLE "4:cjc004_0810"
    INDEX 01 00:28:72
  TRACK 22 AUDIO
    TITLE "0:"
    INDEX 01 00:30:46
  TRACK 23 AUDIO
    TITLE "5:cjc004_0811"
    INDEX 01 00:30:71
  TRACK 24 AUDIO
    TITLE "0:"
    INDEX 01 00:37:08
  TRACK 25 AUDIO
    TITLE "3:cjc004_0812"
    INDEX 01 00:37:61
  TRACK 26 AUDIO
    TITLE "0:"
    INDEX 01 00:38:73
  TRACK 27 AUDIO
    TITLE "4:cjc004_0813"
    INDEX 01 00:39:33
  TRACK 28 AUDIO
    TITLE "0:"
    INDEX 01 00:40:52
  TRACK 29 AUDIO
    TITLE "5:cjc004_0814"
    INDEX 01 00:41:04
  TRACK 30 AUDIO
    TITLE "0:"
    INDEX 01 00:46:49
  TRACK 31 AUDIO
    TITLE "3:cjc004_0815"
    INDEX 01 00:47:28
  TRACK 32 AUDIO
    TITLE "0:"
    INDEX 01 00:48:38
  TRACK 33 AUDIO
    TITLE "4:cjc004_0816"
    INDEX 01 00:48:67
  TRACK 34 AUDIO
    TITLE "0:"
    INDEX 01 00:49:69
  TRACK 35 AUDIO
    TITLE "5:cjc004_0817"
    INDEX 01 00:50:15
  TRACK 36 AUDIO
    TITLE "0:"
    INDEX 01 00:54:19
  TRACK 37 AUDIO
    TITLE "3:cjc004_0818"
    INDEX 01 00:54:72
  TRACK 38 AUDIO
    TITLE "0:"
    INDEX 01 00:56:16
  TRACK 39 AUDIO
    TITLE "4:cjc004_0819"
    INDEX 01 00:56:47
  TRACK 40 AUDIO
    TITLE "0:"
    INDEX 01 00:58:44
  TRACK 41 AUDIO
    TITLE "5:cjc004_0820"
    INDEX 01 00:58:67
  TRACK 42 AUDIO
    TITLE "0:"
    INDEX 01 01:03:29
  TRACK 43 AUDIO
    TITLE "3:cjc004_0821"
    INDEX 01 01:04:11
  TRACK 44 AUDIO
    TITLE "0:"
    INDEX 01 01:05:22
  TRACK 45 AUDIO
    TITLE "4:cjc004_0822"
    INDEX 01 01:05:52
  TRACK 46 AUDIO
    TITLE "0:"
    INDEX 01 01:07:02
  TRACK 47 AUDIO
    TITLE "5:cjc004_0823"
    INDEX 01 01:07:23
  TRACK 48 AUDIO
    TITLE "0:"
    INDEX 01 01:11:19
  TRACK 49 AUDIO
    TITLE "3:cjc004_0824"
    INDEX 01 01:11:70
  TRACK 50 AUDIO
    TITLE "0:"
    INDEX 01 01:13:40
  TRACK 51 AUDIO
    TITLE "4:cjc004_0825"
    INDEX 01 01:13:73
  TRACK 52 AUDIO
    TITLE "0:"
    INDEX 01 01:15:64
  TRACK 53 AUDIO
    TITLE "5:cjc004_0826"
    INDEX 01 01:16:11
  TRACK 54 AUDIO
    TITLE "0:"
    INDEX 01 01:20:28
  TRACK 55 AUDIO
    TITLE "3:cjc004_0827"
    INDEX 01 01:21:04
  TRACK 56 AUDIO
    TITLE "0:"
    INDEX 01 01:23:22
  TRACK 57 AUDIO
    TITLE "4:cjc004_0828"
    INDEX 01 01:23:46
  TRACK 58 AUDIO
    TITLE "0:"
    INDEX 01 01:25:57
  TRACK 59 AUDIO
    TITLE "5:cjc004_0829"
    INDEX 01 01:26:07
  TRACK 60 AUDIO
    TITLE "0:"
    INDEX 01 01:30:58
  TRACK 61 AUDIO
    TITLE "3:cjc004_0830"
    INDEX 01 01:31:41
  TRACK 62 AUDIO
    TITLE "0:"
    INDEX 01 01:32:55
  TRACK 63 AUDIO
    TITLE "4:cjc004_0831"
    INDEX 01 01:33:09
  TRACK 64 AUDIO
    TITLE "0:"
    INDEX 01 01:34:28
  TRACK 65 AUDIO
    TITLE "5:cjc004_0832"
    INDEX 01 01:34:57
  TRACK 66 AUDIO
    TITLE "0:"
    INDEX 01 01:39:10
  TRACK 67 AUDIO
    TITLE "3:cjc004_0833"
    INDEX 01 01:39:64
  TRACK 68 AUDIO
    TITLE "0:"
    INDEX 01 01:41:14
  TRACK 69 AUDIO
    TITLE "4:cjc004_0834"
    INDEX 01 01:41:48
  TRACK 70 AUDIO
    TITLE "0:"
    INDEX 01 01:43:07
  TRACK 71 AUDIO
    TITLE "5:cjc004_0835"
    INDEX 01 01:43:35
  TRACK 72 AUDIO
    TITLE "0:"
    INDEX 01 01:48:05
  TRACK 73 AUDIO
    TITLE "3:cjc004_0836"
    INDEX 01 01:48:60
  TRACK 74 AUDIO
    TITLE "0:"
    INDEX 01 01:49:73
  TRACK 75 AUDIO
    TITLE "4:cjc004_0837"
    INDEX 01 01:50:29
  TRACK 76 AUDIO
    TITLE "0:"
    INDEX 01 01:52:10
  TRACK 77 AUDIO
    TITLE "5:cjc004_0838"
    INDEX 01 01:52:36
  TRACK 78 AUDIO
    TITLE "0:"
    INDEX 01 01:59:03
  TRACK 79 AUDIO
    TITLE "3:cjc004_0839"
    INDEX 01 01:59:55
  TRACK 80 AUDIO
    TITLE "0:"
    INDEX 01 02:01:07
  TRACK 81 AUDIO
    TITLE "4:cjc004_0840"
    INDEX 01 02:01:35
  TRACK 82 AUDIO
    TITLE "0:"
    INDEX 01 02:03:22
  TRACK 83 AUDIO
    TITLE "5:cjc004_0841"
    INDEX 01 02:03:51
  TRACK 84 AUDIO
    TITLE "0:"
    INDEX 01 02:09:07
